HIERARCHY
ROOT Hips
{
  OFFSET 5.72205e-005 65.662 3.42586
  CHANNELS 6 Xposition Yposition Zposition Zrotation Xrotation Yrotation
  JOINT Chest
  {
    OFFSET 0 8.7983 -4.7612
    CHANNELS 6 Xposition Yposition Zposition Zrotation Xrotation Yrotation
    JOINT Chest2
    {
      OFFSET 0 8.0291 0.4195
      CHANNELS 6 Xposition Yposition Zposition Zrotation Xrotation Yrotation
      JOINT Chest3
      {
        OFFSET 0 9.9351 -2.2114
        CHANNELS 6 Xposition Yposition Zposition Zrotation Xrotation Yrotation
        JOINT Neck
        {
          OFFSET 0 22.3885 -0.4656
          CHANNELS 6 Xposition Yposition Zposition Zrotation Xrotation Yrotation
          JOINT Head
          {
            OFFSET -0.0001 12.643 3.4389
            CHANNELS 6 Xposition Yposition Zposition Zrotation Xrotation Yrotation
            End Site
            {
              OFFSET 0.0001 17.6655 0.5274
            }
          }
        }
        JOINT LeftCollar
        {
          OFFSET 2.2603 21.606 7.4023
          CHANNELS 6 Xposition Yposition Zposition Zrotation Xrotation Yrotation
          JOINT LeftShoulder
          {
            OFFSET 13.5163 -1.1332 -5.0146
            CHANNELS 6 Xposition Yposition Zposition Zrotation Xrotation Yrotation
            JOINT LeftElbow
            {
              OFFSET -0.0995 -28.05 -0.2431
              CHANNELS 6 Xposition Yposition Zposition Zrotation Xrotation Yrotation
              JOINT LeftWrist
              {
                OFFSET 0.0679 -23.3996 -0.1402
                CHANNELS 6 Xposition Yposition Zposition Zrotation Xrotation Yrotation
                JOINT LeftFinger1
                {
                  OFFSET 0.7932 -9.069 2.5189
                  CHANNELS 6 Xposition Yposition Zposition Zrotation Xrotation Yrotation
                  JOINT LeftFinger11
                  {
                    OFFSET -0.8272 -3.3923 0.5977
                    CHANNELS 6 Xposition Yposition Zposition Zrotation Xrotation Yrotation
                    JOINT LeftFinger12
                    {
                      OFFSET -0.5649 -2.3158 0.4082
                      CHANNELS 6 Xposition Yposition Zposition Zrotation Xrotation Yrotation
                      End Site
                      {
                        OFFSET -0.4919 -1.6479 0.2673
                      }
                    }
                  }
                }
                JOINT LeftFinger2
                {
                  OFFSET 0.9159 -9.2044 0.2193
                  CHANNELS 6 Xposition Yposition Zposition Zrotation Xrotation Yrotation
                  JOINT LeftFinger21
                  {
                    OFFSET 0.0117 -4.1944 -0.0248
                    CHANNELS 6 Xposition Yposition Zposition Zrotation Xrotation Yrotation
                    JOINT LeftFinger22
                    {
                      OFFSET 0.0071 -2.3249 -0.0142
                      CHANNELS 6 Xposition Yposition Zposition Zrotation Xrotation Yrotation
                      End Site
                      {
                        OFFSET -0.1475 -2.0882 0.0028
                      }
                    }
                  }
                }
                JOINT LeftFinger3
                {
                  OFFSET 0.6113 -8.7231 -2.0637
                  CHANNELS 6 Xposition Yposition Zposition Zrotation Xrotation Yrotation
                  JOINT LeftFinger31
                  {
                    OFFSET -0.1927 -3.8059 -0.2383
                    CHANNELS 6 Xposition Yposition Zposition Zrotation Xrotation Yrotation
                    JOINT LeftFinger32
                    {
                      OFFSET -0.1091 -2.1688 -0.1362
                      CHANNELS 6 Xposition Yposition Zposition Zrotation Xrotation Yrotation
                      End Site
                      {
                        OFFSET -0.2358 -1.9176 -0.0906
                      }
                    }
                  }
                }
                JOINT LeftFinger4
                {
                  OFFSET -0.6151 -8.0947 -3.5641
                  CHANNELS 6 Xposition Yposition Zposition Zrotation Xrotation Yrotation
                  JOINT LeftFinger41
                  {
                    OFFSET -0.4882 -2.341 -0.6462
                    CHANNELS 6 Xposition Yposition Zposition Zrotation Xrotation Yrotation
                    JOINT LeftFinger42
                    {
                      OFFSET -0.3575 -1.7167 -0.4742
                      CHANNELS 6 Xposition Yposition Zposition Zrotation Xrotation Yrotation
                      End Site
                      {
                        OFFSET -0.4187 -1.5237 -0.3496
                      }
                    }
                  }
                }
                JOINT LeftFinger0
                {
                  OFFSET -1.42 -1.8761 1.4223
                  CHANNELS 6 Xposition Yposition Zposition Zrotation Xrotation Yrotation
                  JOINT LeftFinger01
                  {
                    OFFSET -1.1471 -3.4929 2.6334
                    CHANNELS 6 Xposition Yposition Zposition Zrotation Xrotation Yrotation
                    JOINT LeftFinger02
                    {
                      OFFSET -0.823 -2.3 1.6571
                      CHANNELS 6 Xposition Yposition Zposition Zrotation Xrotation Yrotation
                      End Site
                      {
                        OFFSET -0.5822 -1.6914 1.1582
                      }
                    }
                  }
                }
              }
            }
          }
        }
        JOINT RightCollar
        {
          OFFSET -2.2603 21.606 7.4023
          CHANNELS 6 Xposition Yposition Zposition Zrotation Xrotation Yrotation
          JOINT RightShoulder
          {
            OFFSET -13.5187 -1.1334 -5.0155
            CHANNELS 6 Xposition Yposition Zposition Zrotation Xrotation Yrotation
            JOINT RightElbow
            {
              OFFSET 0.0994 -28.0499 -0.2431
              CHANNELS 6 Xposition Yposition Zposition Zrotation Xrotation Yrotation
              JOINT RightWrist
              {
                OFFSET -0.0679 -23.3996 -0.1402
                CHANNELS 6 Xposition Yposition Zposition Zrotation Xrotation Yrotation
                JOINT RightFinger1
                {
                  OFFSET -0.7932 -9.0691 2.5189
                  CHANNELS 6 Xposition Yposition Zposition Zrotation Xrotation Yrotation
                  JOINT RightFinger11
                  {
                    OFFSET 0.8272 -3.3923 0.5977
                    CHANNELS 6 Xposition Yposition Zposition Zrotation Xrotation Yrotation
                    JOINT RightFinger12
                    {
                      OFFSET 0.565 -2.3158 0.4082
                      CHANNELS 6 Xposition Yposition Zposition Zrotation Xrotation Yrotation
                      End Site
                      {
                        OFFSET 0.4919 -1.6479 0.2673
                      }
                    }
                  }
                }
                JOINT RightFinger2
                {
                  OFFSET -0.916 -9.2044 0.2193
                  CHANNELS 6 Xposition Yposition Zposition Zrotation Xrotation Yrotation
                  JOINT RightFinger21
                  {
                    OFFSET -0.0117 -4.1944 -0.0248
                    CHANNELS 6 Xposition Yposition Zposition Zrotation Xrotation Yrotation
                    JOINT RightFinger22
                    {
                      OFFSET -0.0071 -2.3249 -0.0142
                      CHANNELS 6 Xposition Yposition Zposition Zrotation Xrotation Yrotation
                      End Site
                      {
                        OFFSET 0.1475 -2.0882 0.0028
                      }
                    }
                  }
                }
                JOINT RightFinger3
                {
                  OFFSET -0.6113 -8.7231 -2.0637
                  CHANNELS 6 Xposition Yposition Zposition Zrotation Xrotation Yrotation
                  JOINT RightFinger31
                  {
                    OFFSET 0.1927 -3.8059 -0.2383
                    CHANNELS 6 Xposition Yposition Zposition Zrotation Xrotation Yrotation
                    JOINT RightFinger32
                    {
                      OFFSET 0.1091 -2.1688 -0.1362
                      CHANNELS 6 Xposition Yposition Zposition Zrotation Xrotation Yrotation
                      End Site
                      {
                        OFFSET 0.2358 -1.9176 -0.0906
                      }
                    }
                  }
                }
                JOINT RightFinger4
                {
                  OFFSET 0.6151 -8.0947 -3.564
                  CHANNELS 6 Xposition Yposition Zposition Zrotation Xrotation Yrotation
                  JOINT RightFinger41
                  {
                    OFFSET 0.4882 -2.341 -0.6462
                    CHANNELS 6 Xposition Yposition Zposition Zrotation Xrotation Yrotation
                    JOINT RightFinger42
                    {
                      OFFSET 0.3574 -1.7166 -0.4742
                      CHANNELS 6 Xposition Yposition Zposition Zrotation Xrotation Yrotation
                      End Site
                      {
                        OFFSET 0.4187 -1.5237 -0.3496
                      }
                    }
                  }
                }
                JOINT RightFinger0
                {
                  OFFSET 1.4199 -1.8761 1.4221
                  CHANNELS 6 Xposition Yposition Zposition Zrotation Xrotation Yrotation
                  JOINT RightFinger01
                  {
                    OFFSET 1.1472 -3.4929 2.6336
                    CHANNELS 6 Xposition Yposition Zposition Zrotation Xrotation Yrotation
                    JOINT RightFinger02
                    {
                      OFFSET 0.8229 -2.3 1.6571
                      CHANNELS 6 Xposition Yposition Zposition Zrotation Xrotation Yrotation
                      End Site
                      {
                        OFFSET 0.5822 -1.6914 1.1582
                      }
                    }
                  }
                }
              }
            }
          }
        }
      }
    }
  }
  JOINT RightHip
  {
    OFFSET -9.412 3.9771 -0.7758
    CHANNELS 6 Xposition Yposition Zposition Zrotation Xrotation Yrotation
    JOINT RightKnee
    {
      OFFSET -0.7531 -40.938 0
      CHANNELS 6 Xposition Yposition Zposition Zrotation Xrotation Yrotation
      JOINT RightAnkle
      {
        OFFSET 0 -40.1986 0
        CHANNELS 6 Xposition Yposition Zposition Zrotation Xrotation Yrotation
        JOINT RightToe
        {
          OFFSET 0 -4.4182 9.239
          CHANNELS 6 Xposition Yposition Zposition Zrotation Xrotation Yrotation
          End Site
          {
            OFFSET 0 0 6.1981
          }
        }
      }
    }
  }
  JOINT LeftHip
  {
    OFFSET 9.4119 3.9773 -0.7758
    CHANNELS 6 Xposition Yposition Zposition Zrotation Xrotation Yrotation
    JOINT LeftKnee
    {
      OFFSET 0.7532 -40.9383 0
      CHANNELS 6 Xposition Yposition Zposition Zrotation Xrotation Yrotation
      JOINT LeftAnkle
      {
        OFFSET 0 -40.1986 0
        CHANNELS 6 Xposition Yposition Zposition Zrotation Xrotation Yrotation
        JOINT LeftToe
        {
          OFFSET 0 -4.4182 9.239
          CHANNELS 6 Xposition Yposition Zposition Zrotation Xrotation Yrotation
          End Site
          {
            OFFSET 0 0 6.1981
          }
        }
      }
    }
  }
}
MOTION
Frames:	4
Frame Time:	0.0333333
3.07183 28.1083 16.0012 -90.0009 -72.2332 179.999 0 8.7983 -4.7612 -0.224967 6.17898 -0.708632 3.55271e-015 8.0291 0.4195 -0.375745 12.3603 -1.40508 -3.55271e-015 9.9351 -2.2114 -0.375749 12.3603 -1.4051 0 22.3885 -0.4656 13.2257 10.5697 -2.47257 -0.0001 12.643 3.4389 9.39207 -16.5638 2.69809 2.2603 21.606 7.4023 24.7408 -32.3221 -50.5104 13.5163 -1.1332 -5.0146 86.5825 -25.212 86.8378 -0.0995 -28.05 -0.2431 -26.4544 -19.6029 -12.6751 0.0679 -23.3996 -0.1402 -19.3371 5.53322 1.16017 0.7932 -9.069 2.5189 -3.97569e-015 -1.03368e-014 -0 -0.8272 -3.3923 0.5977 7.95139e-016 -9.54166e-015 9.54166e-015 -0.5649 -2.3158 0.4082 1.59028e-015 -1.59028e-015 3.18055e-015 0.9159 -9.2044 0.2193 -3.97569e-015 -1.03368e-014 -0 0.0117 -4.1944 -0.0248 -0.0128183 0.0023123 8.57963e-005 0.0071 -2.3249 -0.0142 3.97569e-015 2.38542e-015 3.18055e-015 0.6113 -8.7231 -2.0637 -3.97569e-015 -1.03368e-014 -0 -0.1927 -3.8059 -0.2383 -0.016078 0.00299199 0.000857652 -0.1091 -2.1688 -0.1362 7.95139e-016 7.95139e-016 -0 -0.6151 -8.0947 -3.5641 -3.97569e-015 -1.03368e-014 -0 -0.4882 -2.341 -0.6462 -0.0126445 0.00313807 0.00283921 -0.3575 -1.7167 -0.4742 1.59028e-015 1.03368e-014 -0 -1.42 -1.8761 1.4223 -3.97569e-015 -1.03368e-014 -0 -1.1471 -3.4929 2.6334 7.95139e-016 -9.54166e-015 9.54166e-015 -0.823 -2.3 1.6571 1.59028e-015 -1.59028e-015 3.18055e-015 -2.2603 21.606 7.4023 -32.5699 1.12623 -1.65975 -13.5187 -1.1334 -5.0155 -138.84 -50.0959 -19.2749 0.0994 -28.0499 -0.2431 6.48537 -26.5894 2.17503 -0.0679 -23.3996 -0.1402 6.87365 1.25174 0.312683 -0.7932 -9.0691 2.5189 7.28839e-007 1.23896e-006 -3.07031e-006 0.8272 -3.3923 0.5977 -9.93923e-017 -3.97569e-016 -0 0.565 -2.3158 0.4082 3.18055e-015 0 3.18055e-015 -0.916 -9.2044 0.2193 7.28839e-007 1.23896e-006 -3.07031e-006 -0.0117 -4.1944 -0.0248 0.0129453 0.0023141 -8.73011e-005 -0.0071 -2.3249 -0.0142 -4.96962e-016 1.98785e-015 -0 -0.6113 -8.7231 -2.0637 7.28839e-007 1.23896e-006 -3.07031e-006 0.1927 -3.8059 -0.2383 0.0163038 0.00303067 -0.000870397 0.1091 -2.1688 -0.1362 -3.97569e-016 7.95139e-016 3.18055e-015 0.6151 -8.0947 -3.564 7.28839e-007 1.23896e-006 -3.07031e-006 0.4882 -2.341 -0.6462 0.0145648 0.00367376 -0.00325564 0.3574 -1.7166 -0.4742 2.5842e-015 1.98785e-016 3.18055e-015 1.4199 -1.8761 1.4221 7.28839e-007 1.23896e-006 -3.07031e-006 1.1472 -3.4929 2.6336 -9.93923e-017 -3.97569e-016 -0 0.8229 -2.3 1.6571 3.18055e-015 0 3.18055e-015 -9.412 3.9771 -0.7758 16.6633 6.53393 -1.60589 -0.7531 -40.938 0 -146.683 63.8051 144.033 0 -40.1986 0 -5.24882 0.755615 -2.38934 0 -4.4182 9.239 -3.57812e-015 -1.59028e-015 3.18055e-015 9.4119 3.9773 -0.7758 80.1231 -69.571 100.003 0.7532 -40.9383 0 -169.024 44.3784 169.657 7.10543e-015 -40.1986 0 18.1574 -7.07351 -1.94079 7.10543e-015 -4.4182 9.239 -3.3424e-006 -1.00434e-006 -3.58644e-006 
3.01268 28.1074 15.9779 -90.0009 -71.996 179.999 0 8.7983 -4.7612 -0.22632 6.25248 -0.708562 0 8.0291 0.4195 -0.377634 12.5073 -1.40477 -3.55271e-015 9.9351 -2.2114 -0.377656 12.5073 -1.40479 0 22.3885 -0.4656 13.2321 10.7111 -2.50648 -0.0001 12.643 3.4389 9.40317 -16.7849 2.73631 2.2603 21.606 7.4023 24.7948 -32.6969 -50.3569 13.5163 -1.1332 -5.0146 86.3198 -25.1625 86.7471 -0.0995 -28.05 -0.2431 -26.5369 -19.6341 -12.7071 0.0679 -23.3996 -0.1402 -19.5049 5.58831 1.18377 0.7932 -9.069 2.5189 1.32428e-005 1.10395e-005 -9.91962e-006 -0.8272 -3.3923 0.5977 7.95139e-016 3.18055e-015 -0 -0.5649 -2.3158 0.4082 -3.18055e-015 7.95139e-016 6.36111e-015 0.9159 -9.2044 0.2193 1.32428e-005 1.10395e-005 -9.91962e-006 0.0117 -4.1944 -0.0248 -0.0128295 0.00231616 8.8241e-005 0.0071 -2.3249 -0.0142 -6.36111e-015 -6.36111e-015 3.18055e-015 0.6113 -8.7231 -2.0637 1.32428e-005 1.10395e-005 -9.91962e-006 -0.1927 -3.8059 -0.2383 -0.016069 0.00299217 0.000864274 -0.1091 -2.1688 -0.1362 -4.77083e-015 -7.95139e-016 -3.18055e-015 -0.6151 -8.0947 -3.5641 1.32428e-005 1.10395e-005 -9.91962e-006 -0.4882 -2.341 -0.6462 -0.0125657 0.00310564 0.00282521 -0.3575 -1.7167 -0.4742 2.38542e-015 2.38542e-015 -3.18055e-015 -1.42 -1.8761 1.4223 1.32428e-005 1.10395e-005 -9.91962e-006 -1.1471 -3.4929 2.6334 7.95139e-016 3.18055e-015 -0 -0.823 -2.3 1.6571 -3.18055e-015 7.95139e-016 6.36111e-015 -2.2603 21.606 7.4023 -32.5699 1.12624 -1.65975 -13.5187 -1.1334 -5.0155 -138.84 -50.0959 -19.2749 0.0994 -28.0499 -0.2431 6.48537 -26.5894 2.17503 -0.0679 -23.3996 -0.1402 6.87363 1.25176 0.312673 -0.7932 -9.0691 2.5189 1.07344e-014 3.57812e-015 6.36111e-015 0.8272 -3.3923 0.5977 9.54166e-015 4.77083e-015 9.54166e-015 0.565 -2.3158 0.4082 1.12313e-014 3.37934e-015 3.18055e-015 -0.916 -9.2044 0.2193 1.07344e-014 3.57812e-015 6.36111e-015 -0.0117 -4.1944 -0.0248 0.0129622 0.00232174 -8.63209e-005 -0.0071 -2.3249 -0.0142 -1.32417e-031 1.19271e-015 6.36111e-015 -0.6113 -8.7231 -2.0637 1.07344e-014 3.57812e-015 6.36111e-015 0.1927 -3.8059 -0.2383 0.0163355 0.00303788 -0.000874955 0.1091 -2.1688 -0.1362 -1.78906e-015 1.98785e-016 -0 0.6151 -8.0947 -3.564 1.07344e-014 3.57812e-015 6.36111e-015 0.4882 -2.341 -0.6462 0.0145563 0.00367387 -0.00325266 0.3574 -1.7166 -0.4742 2.48481e-015 1.39149e-015 3.18055e-015 1.4199 -1.8761 1.4221 1.07344e-014 3.57812e-015 6.36111e-015 1.1472 -3.4929 2.6336 9.54166e-015 4.77083e-015 9.54166e-015 0.8229 -2.3 1.6571 1.12313e-014 3.37934e-015 3.18055e-015 -9.412 3.9771 -0.7758 16.6702 6.83107 -1.66878 -0.7531 -40.938 8.88179e-016 -146.616 63.8635 143.977 0 -40.1986 7.10543e-015 -5.24842 0.764528 -2.3868 -3.55271e-015 -4.4182 9.239 1.46157e-006 8.91576e-007 -4.51069e-007 9.4119 3.9773 -0.7758 79.1764 -69.3791 99.1396 0.7532 -40.9383 3.55271e-015 -169.05 44.3365 169.676 0 -40.1986 0 18.3293 -7.19833 -1.9939 0 -4.4182 9.239 -4.3498e-006 7.05622e-007 -5.74977e-006 
3.07183 28.1083 16.0012 -90.001 -72.2332 179.999 0 8.7983 -4.7612 -0.224956 6.17896 -0.708639 0 8.0291 0.4195 -0.375753 12.3603 -1.40506 0 9.9351 -2.2114 -0.375752 12.3603 -1.40509 -3.55271e-015 22.3885 -0.4656 13.2258 10.5697 -2.47259 -0.0001 12.643 3.4389 9.39204 -16.5638 2.69809 2.2603 21.606 7.4023 24.7821 -32.3312 -50.553 13.5163 -1.1332 -5.0146 86.5826 -25.2121 86.8378 -0.0995 -28.05 -0.2431 -26.4543 -19.6029 -12.6751 0.0679 -23.3996 -0.1402 -19.3372 5.53321 1.16014 0.7932 -9.069 2.5189 1.51076e-014 0 -9.54166e-015 -0.8272 -3.3923 0.5977 -3.47964e-006 5.52411e-006 2.98404e-006 -0.5649 -2.3158 0.4082 -7.15625e-015 7.95139e-015 -3.18055e-015 0.9159 -9.2044 0.2193 1.51076e-014 0 -9.54166e-015 0.0117 -4.1944 -0.0248 -0.0128392 0.00233348 9.60008e-005 0.0071 -2.3249 -0.0142 2.8625e-014 1.98785e-014 -0 0.6113 -8.7231 -2.0637 1.51076e-014 0 -9.54166e-015 -0.1927 -3.8059 -0.2383 -0.0160847 0.00300319 0.000859867 -0.1091 -2.1688 -0.1362 -7.15625e-015 -1.27222e-014 -3.18055e-015 -0.6151 -8.0947 -3.5641 1.51076e-014 0 -9.54166e-015 -0.4882 -2.341 -0.6462 -0.0125594 0.00313633 0.00281729 -0.3575 -1.7167 -0.4742 -4.77083e-015 -1.59028e-015 -3.18055e-015 -1.42 -1.8761 1.4223 1.51076e-014 0 -9.54166e-015 -1.1471 -3.4929 2.6334 -3.47964e-006 5.52411e-006 2.98404e-006 -0.823 -2.3 1.6571 -7.15625e-015 7.95139e-015 -3.18055e-015 -2.2603 21.606 7.4023 -32.5699 1.12622 -1.65977 -13.5187 -1.1334 -5.0155 -138.84 -50.0959 -19.2749 0.0994 -28.0499 -0.2431 6.48536 -26.5894 2.17504 -0.0679 -23.3996 -0.1402 6.87365 1.25174 0.312695 -0.7932 -9.0691 2.5189 4.96962e-015 1.98785e-016 3.18055e-015 0.8272 -3.3923 0.5977 3.18055e-015 1.59028e-015 6.36111e-015 0.565 -2.3158 0.4082 5.56597e-015 0 6.36111e-015 -0.916 -9.2044 0.2193 4.96962e-015 1.98785e-016 3.18055e-015 -0.0117 -4.1944 -0.0248 0.0129594 0.00232041 -8.79829e-005 -0.0071 -2.3249 -0.0142 -1.68967e-015 1.98785e-016 -3.18055e-015 -0.6113 -8.7231 -2.0637 4.96962e-015 1.98785e-016 3.18055e-015 0.1927 -3.8059 -0.2383 0.0163275 0.00303251 -0.000873295 0.1091 -2.1688 -0.1362 -5.1684e-015 5.96354e-016 -3.18055e-015 0.6151 -8.0947 -3.564 4.96962e-015 1.98785e-016 3.18055e-015 0.4882 -2.341 -0.6462 0.0145825 0.00367682 -0.00326352 0.3574 -1.7166 -0.4742 7.3619e-006 2.28859e-006 -1.03819e-006 1.4199 -1.8761 1.4221 4.96962e-015 1.98785e-016 3.18055e-015 1.1472 -3.4929 2.6336 3.18055e-015 1.59028e-015 6.36111e-015 0.8229 -2.3 1.6571 5.56597e-015 0 6.36111e-015 -9.412 3.9771 -0.7758 16.6633 6.53397 -1.6059 -0.7531 -40.938 0 -146.683 63.8051 144.033 3.55271e-015 -40.1986 7.10543e-015 -5.24881 0.755561 -2.38936 0 -4.4182 9.239 -8.50064e-008 2.61013e-008 8.33622e-007 9.4119 3.9773 -0.7758 80.1231 -69.5711 100.003 0.7532 -40.9383 3.9968e-015 -169.024 44.3785 169.657 7.10543e-015 -40.1986 -3.55271e-015 18.1573 -7.07347 -1.94082 0 -4.4182 9.239 -3.66297e-006 -3.30695e-006 -6.87236e-007 
3.2023 28.11 16.052 -90.0011 -72.7552 179.998 0 8.7983 -4.7612 -0.221928 6.01725 -0.708813 0 8.0291 0.4195 -0.371607 12.0368 -1.40579 0 9.9351 -2.2114 -0.371608 12.0368 -1.40578 3.55271e-015 22.3885 -0.4656 13.2123 10.2586 -2.39814 -0.0001 12.643 3.4389 9.36847 -16.0772 2.61436 2.2603 21.606 7.4023 24.7366 -31.523 -50.9578 13.5163 -1.1332 -5.0146 87.1599 -25.3211 87.0374 -0.0995 -28.05 -0.2431 -26.2728 -19.5349 -12.6049 0.0679 -23.3996 -0.1402 -18.9681 5.41188 1.10868 0.7932 -9.069 2.5189 3.61811e-006 3.57888e-006 4.16591e-007 -0.8272 -3.3923 0.5977 3.18055e-015 0 -9.54166e-015 -0.5649 -2.3158 0.4082 4.83331e-007 5.99719e-006 2.38797e-006 0.9159 -9.2044 0.2193 3.61811e-006 3.57888e-006 4.16591e-007 0.0117 -4.1944 -0.0248 -0.0128301 0.00232834 8.18567e-005 0.0071 -2.3249 -0.0142 8.39761e-006 5.15858e-006 -1.622e-007 0.6113 -8.7231 -2.0637 3.61811e-006 3.57888e-006 4.16591e-007 -0.1927 -3.8059 -0.2383 -0.0161073 0.00301001 0.000864076 -0.1091 -2.1688 -0.1362 1.23629e-005 6.28427e-006 -7.61033e-007 -0.6151 -8.0947 -3.5641 3.61811e-006 3.57888e-006 4.16591e-007 -0.4882 -2.341 -0.6462 -0.0125596 0.00311578 0.00281482 -0.3575 -1.7167 -0.4742 1.26942e-005 1.04351e-005 -3.12916e-006 -1.42 -1.8761 1.4223 3.61811e-006 3.57888e-006 4.16591e-007 -1.1471 -3.4929 2.6334 3.18055e-015 0 -9.54166e-015 -0.823 -2.3 1.6571 4.83331e-007 5.99719e-006 2.38797e-006 -2.2603 21.606 7.4023 -32.5699 1.1262 -1.65977 -13.5187 -1.1334 -5.0155 -138.84 -50.0959 -19.2748 0.0994 -28.0499 -0.2431 6.48527 -26.5895 2.17502 -0.0679 -23.3996 -0.1402 6.87364 1.25176 0.312682 -0.7932 -9.0691 2.5189 2.48481e-015 0 -0 0.8272 -3.3923 0.5977 1.39149e-015 -1.98785e-016 -0 0.565 -2.3158 0.4082 3.31043e-032 -5.96354e-016 3.18055e-015 -0.916 -9.2044 0.2193 2.48481e-015 0 -0 -0.0117 -4.1944 -0.0248 0.0129706 0.00232032 -8.76028e-005 -0.0071 -2.3249 -0.0142 -1.68967e-015 9.93923e-016 -0 -0.6113 -8.7231 -2.0637 2.48481e-015 0 -0 0.1927 -3.8059 -0.2383 0.0163271 0.00303275 -0.000870116 0.1091 -2.1688 -0.1362 -2.98177e-016 -1.39149e-015 -0 0.6151 -8.0947 -3.564 2.48481e-015 0 -0 0.4882 -2.341 -0.6462 0.0146257 0.00369225 -0.00326565 0.3574 -1.7166 -0.4742 -2.38542e-015 2.98177e-015 3.18055e-015 1.4199 -1.8761 1.4221 2.48481e-015 0 -0 1.1472 -3.4929 2.6336 1.39149e-015 -1.98785e-016 -0 0.8229 -2.3 1.6571 3.31043e-032 -5.96354e-016 3.18055e-015 -9.412 3.9771 -0.7758 16.6499 5.88017 -1.46793 -0.7531 -40.938 1.77636e-015 -146.829 63.6764 144.157 1.77636e-015 -40.1986 0 -5.24987 0.73587 -2.39503 0 -4.4182 9.239 1.39149e-015 4.17138e-007 1.59028e-015 9.4119 3.9773 -0.7758 82.2671 -69.9757 101.968 0.7532 -40.9383 -1.33227e-015 -168.966 44.4705 169.616 1.42109e-014 -40.1986 0 17.7784 -6.79895 -1.82361 0 -4.4182 9.239 7.45655e-006 9.80225e-008 -1.86919e-006 
